<svg width="24" height="24" viewBox="0 0 24 24" fill="none" xmlns="http://www.w3.org/2000/svg">
<path d="M11.75 20C12.1642 20 12.5 20.3358 12.5 20.75V22.75C12.5 23.1642 12.1642 23.5 11.75 23.5C11.3358 23.5 11 23.1642 11 22.75V20.75C11 20.3358 11.3358 20 11.75 20ZM4.85547 17.584C5.14836 17.2911 5.62312 17.2911 5.91602 17.584C6.20891 17.8769 6.20891 18.3516 5.91602 18.6445L4.50195 20.0586C4.20905 20.3513 3.73425 20.3514 3.44141 20.0586C3.14856 19.7657 3.14866 19.291 3.44141 18.998L4.85547 17.584ZM17.584 17.584C17.8769 17.2911 18.3516 17.2911 18.6445 17.584L20.0586 18.998C20.3513 19.291 20.3514 19.7657 20.0586 20.0586C19.7657 20.3514 19.291 20.3513 18.998 20.0586L17.584 18.6445C17.2911 18.3516 17.2911 17.8769 17.584 17.584ZM11.75 5C15.4779 5 18.5 8.02208 18.5 11.75C18.5 15.4779 15.4779 18.5 11.75 18.5C8.02208 18.5 5 15.4779 5 11.75C5 8.02208 8.02208 5 11.75 5ZM11.75 6.5C8.8505 6.5 6.5 8.8505 6.5 11.75C6.5 14.6495 8.8505 17 11.75 17C14.6495 17 17 14.6495 17 11.75C17 8.8505 14.6495 6.5 11.75 6.5ZM2.75 11C3.16421 11 3.5 11.3358 3.5 11.75C3.5 12.1642 3.16421 12.5 2.75 12.5H0.75C0.335786 12.5 0 12.1642 0 11.75C0 11.3358 0.335786 11 0.75 11H2.75ZM22.75 11C23.1642 11 23.5 11.3358 23.5 11.75C23.5 12.1642 23.1642 12.5 22.75 12.5H20.75C20.3358 12.5 20 12.1642 20 11.75C20 11.3358 20.3358 11 20.75 11H22.75ZM3.44141 3.44141C3.73425 3.14856 4.20905 3.14866 4.50195 3.44141L5.91602 4.85547C6.20891 5.14836 6.20891 5.62312 5.91602 5.91602C5.62312 6.20891 5.14836 6.20891 4.85547 5.91602L3.44141 4.50195C3.14866 4.20905 3.14856 3.73425 3.44141 3.44141ZM18.998 3.44141C19.291 3.14866 19.7657 3.14856 20.0586 3.44141C20.3514 3.73425 20.3513 4.20905 20.0586 4.50195L18.6445 5.91602C18.3516 6.20891 17.8769 6.20891 17.584 5.91602C17.2911 5.62312 17.2911 5.14836 17.584 4.85547L18.998 3.44141ZM11.75 0C12.1642 0 12.5 0.335786 12.5 0.75V2.75C12.5 3.16421 12.1642 3.5 11.75 3.5C11.3358 3.5 11 3.16421 11 2.75V0.75C11 0.335786 11.3358 0 11.75 0Z" fill="currentColor"/>
</svg>
